<svg width="24" height="24" viewBox="0 0 24 24" fill="none" xmlns="http://www.w3.org/2000/svg">
<path d="M23.2593 8.59296V18.1636C23.2593 20.4155 22.1333 21.5414 19.8814 21.5414H4.11809C1.86619 21.5414 0.740234 20.4155 0.740234 18.1636L0.740234 8.59296C0.740234 6.34104 1.86619 5.2151 4.11809 5.2151H8.05893C8.05893 5.2151 8.66491 4.00314 8.9249 3.48316C9.18488 2.96319 9.74786 2.96319 9.74786 2.96319C9.74786 2.96319 13.8519 2.87682 14.2517 2.96319C14.6514 3.04957 14.8696 3.21486 15.0719 3.47761C15.2741 3.74036 15.6013 4.53657 15.9406 5.2151H19.8814C22.1333 5.2151 23.2593 6.34104 23.2593 8.59296Z" stroke="#CB6040" stroke-width="1.5" stroke-miterlimit="10" stroke-linecap="round" stroke-linejoin="round"/>
<circle cx="11.9999" cy="13.0966" r="3.75381" stroke="#CB6040" stroke-width="1.5"/>
<rect x="4.29004" y="8.32593" width="1.25191" height="1.25191" rx="0.625953" stroke="#CB6040"/>
</svg>
