<svg width="18" height="18" viewBox="0 0 18 18" fill="none" xmlns="http://www.w3.org/2000/svg">
<path d="M15.5162 15.312C14.225 16.684 12.5185 17.6498 10.6016 18C11.6352 16.9462 12.4662 15.7243 13.0705 14.3872C14.0401 14.6682 14.8701 15.0071 15.5162 15.312Z" fill="#CB6040"/>
<path d="M7.28048 17.9783C5.41329 17.611 3.74978 16.6567 2.48438 15.3123C3.10879 15.0174 3.90437 14.6905 4.83095 14.4163C5.55354 16.0285 6.50052 17.2013 7.28048 17.9783Z" fill="#CB6040"/>
<path d="M17.9999 9.54932C17.8928 11.3762 17.2556 13.0599 16.2411 14.4445C15.5427 14.0992 14.6034 13.6959 13.4805 13.3623C13.9025 12.1571 14.1495 10.8744 14.2043 9.54932H17.9999Z" fill="#CB6040"/>
<path d="M13.1186 9.54932C13.0625 10.7816 12.8253 11.9712 12.424 13.0871C11.4618 12.8685 10.4956 12.7392 9.54102 12.7042V9.54932H13.1186Z" fill="#CB6040"/>
<path d="M8.45831 9.54932V12.7042C7.4718 12.7405 6.47382 12.8763 5.48094 13.1104C5.08698 11.9997 4.86418 10.8101 4.81445 9.54932H8.45831Z" fill="#CB6040"/>
<path d="M4.42668 13.3907C3.34583 13.7179 2.4371 14.1095 1.75882 14.4445C0.744261 13.0596 0.107097 11.3762 0 9.54932H3.72928C3.78282 11.0079 4.04674 12.2852 4.42668 13.3907Z" fill="#CB6040"/>
<path d="M18.0007 8.44987H14.2077C14.1567 7.12446 13.9132 5.84077 13.4902 4.63435C14.6093 4.30065 15.5461 3.90002 16.2419 3.55469C17.2562 4.93927 17.8936 6.62295 18.0007 8.44987Z" fill="#CB6040"/>
<path d="M13.1211 8.44995H9.54102V5.29632C10.4995 5.26011 11.4694 5.13077 12.433 4.91089C12.8346 6.02677 13.0688 7.21766 13.1211 8.44995Z" fill="#CB6040"/>
<path d="M8.45863 5.29643V8.45006H4.81445C4.86928 7.09749 5.12682 5.91436 5.49114 4.8916C6.48179 5.12441 7.47595 5.25893 8.45863 5.29643Z" fill="#CB6040"/>
<path d="M4.42636 4.60848C4.04642 5.71531 3.78282 6.99157 3.72928 8.44987H0C0.107097 6.62295 0.744261 4.93927 1.75882 3.55469C2.43678 3.89065 3.34551 4.28125 4.42636 4.60848Z" fill="#CB6040"/>
<path d="M15.5167 2.68728C14.8732 2.99252 14.047 3.32977 13.0796 3.61044C12.4769 2.27339 11.6443 1.05275 10.6094 0.000244141C12.5228 0.352048 14.2268 1.3166 15.5167 2.68728Z" fill="#CB6040"/>
<path d="M12.0062 3.88173C11.1829 4.05763 10.357 4.1624 9.54102 4.19473V0.072998C10.575 1.04919 11.4047 2.61097 12.0062 3.88173Z" fill="#CB6040"/>
<path d="M8.45902 0.072998V4.19473C7.61913 4.1611 6.76905 4.05117 5.91992 3.86362C6.70881 2.20096 7.74536 0.716787 8.45902 0.072998Z" fill="#CB6040"/>
<path d="M12.0062 14.1187C11.1829 13.9428 10.357 13.838 9.54102 13.8057V17.9274C10.5747 16.9512 11.4044 15.3898 12.0062 14.1187Z" fill="#CB6040"/>
<path d="M8.4587 17.9274V13.8057C7.61882 13.8393 6.76873 13.9492 5.91992 14.1368C6.70881 15.7998 7.74504 17.2836 8.4587 17.9274Z" fill="#CB6040"/>
<path d="M7.2808 0.0209961C6.50084 0.798005 5.55258 1.97079 4.83095 3.58334C3.90437 3.30914 3.10911 2.98223 2.48438 2.68734C3.7501 1.34382 5.41361 0.388321 7.2808 0.0209961Z" fill="#CB6040"/>
</svg>
