<svg width="18" height="18" viewBox="0 0 18 18" fill="none" xmlns="http://www.w3.org/2000/svg">
<path d="M15.5172 15.3118C14.226 16.6838 12.5195 17.6496 10.6025 17.9998C11.6362 16.946 12.4672 15.7241 13.0715 14.387C14.0411 14.668 14.8711 15.0069 15.5172 15.3118Z" fill="#272266"/>
<path d="M7.2795 17.9782C5.41231 17.6108 3.7488 16.6566 2.4834 15.3121C3.10781 15.0172 3.90339 14.6903 4.82997 14.4161C5.55256 16.0284 6.49954 17.2011 7.2795 17.9782Z" fill="#272266"/>
<path d="M17.9989 9.54913C17.8918 11.3761 17.2547 13.0597 16.2401 14.4443C15.5418 14.099 14.6024 13.6958 13.4795 13.3621C13.9015 12.1569 14.1485 10.8742 14.2034 9.54913H17.9989Z" fill="#272266"/>
<path d="M13.1195 9.54913C13.0634 10.7814 12.8263 11.971 12.425 13.0869C11.4627 12.8683 10.4966 12.739 9.54199 12.7041V9.54913H13.1195Z" fill="#272266"/>
<path d="M8.45831 9.54913V12.7041C7.4718 12.7403 6.47382 12.8761 5.48094 13.1102C5.08698 11.9995 4.86418 10.8099 4.81445 9.54913H8.45831Z" fill="#272266"/>
<path d="M4.42668 13.3905C3.34583 13.7178 2.4371 14.1093 1.75882 14.4443C0.744261 13.0594 0.107097 11.3761 0 9.54913H3.72928C3.78282 11.0078 4.04674 12.285 4.42668 13.3905Z" fill="#272266"/>
<path d="M17.9998 8.44993H14.2067C14.1557 7.12453 13.9122 5.84083 13.4893 4.63441C14.6084 4.30071 15.5451 3.90009 16.241 3.55475C17.2552 4.93933 17.8927 6.62301 17.9998 8.44993Z" fill="#272266"/>
<path d="M13.1221 8.44983H9.54199V5.2962C10.5004 5.25998 11.4704 5.13064 12.4339 4.91077C12.8355 6.02665 13.0698 7.21754 13.1221 8.44983Z" fill="#272266"/>
<path d="M8.45863 5.29637V8.45H4.81445C4.86928 7.09743 5.12682 5.91429 5.49114 4.89154C6.48179 5.12435 7.47595 5.25887 8.45863 5.29637Z" fill="#272266"/>
<path d="M4.42636 4.60854C4.04642 5.71537 3.78282 6.99163 3.72928 8.44993H0C0.107097 6.62301 0.744261 4.93933 1.75882 3.55475C2.43678 3.89071 3.34551 4.28131 4.42636 4.60854Z" fill="#272266"/>
<path d="M15.5167 2.68722C14.8732 2.99246 14.047 3.32971 13.0796 3.61038C12.4769 2.27333 11.6443 1.05269 10.6094 0.000183105C12.5228 0.351987 14.2268 1.31654 15.5167 2.68722Z" fill="#272266"/>
<path d="M12.0071 3.88161C11.1838 4.05751 10.358 4.16228 9.54199 4.19461V0.072876C10.576 1.04907 11.4057 2.61085 12.0071 3.88161Z" fill="#272266"/>
<path d="M8.45804 0.072876V4.19461C7.61816 4.16098 6.76807 4.05104 5.91895 3.8635C6.70783 2.20084 7.74438 0.716665 8.45804 0.072876Z" fill="#272266"/>
<path d="M12.0071 14.1185C11.1838 13.9426 10.358 13.8379 9.54199 13.8055V17.9273C10.5757 16.9511 11.4054 15.3896 12.0071 14.1185Z" fill="#272266"/>
<path d="M8.45772 17.9273V13.8055C7.61784 13.8392 6.76775 13.9491 5.91895 14.1367C6.70783 15.7996 7.74406 17.2835 8.45772 17.9273Z" fill="#272266"/>
<path d="M7.27982 0.020874C6.49986 0.797883 5.5516 1.97067 4.82997 3.58321C3.90339 3.30901 3.10813 2.98211 2.4834 2.68721C3.74912 1.3437 5.41263 0.388199 7.27982 0.020874Z" fill="#272266"/>
</svg>
