<svg width="25" height="24" viewBox="0 0 25 24" fill="none" xmlns="http://www.w3.org/2000/svg">
<g clip-path="url(#clip0_6641_705)">
<g clip-path="url(#clip1_6641_705)">
<path d="M1.74609 12.9624C1.74609 12.9624 5.74609 4.9624 12.7461 4.9624C19.7461 4.9624 23.7461 12.9624 23.7461 12.9624C23.7461 12.9624 19.7461 20.9624 12.7461 20.9624C5.74609 20.9624 1.74609 12.9624 1.74609 12.9624Z" stroke="#272266" stroke-width="1.5" stroke-linecap="round" stroke-linejoin="round"/>
<path d="M12.7461 15.9624C14.4029 15.9624 15.7461 14.6193 15.7461 12.9624C15.7461 11.3055 14.4029 9.9624 12.7461 9.9624C11.0892 9.9624 9.74609 11.3055 9.74609 12.9624C9.74609 14.6193 11.0892 15.9624 12.7461 15.9624Z" stroke="#272266" stroke-width="1.5" stroke-linecap="round" stroke-linejoin="round"/>
</g>
</g>
<defs>
<clipPath id="clip0_6641_705">
<rect width="24" height="24" fill="white" transform="translate(0.5)"/>
</clipPath>
<clipPath id="clip1_6641_705">
<rect width="24" height="24" fill="white" transform="translate(0.746094 0.962402)"/>
</clipPath>
</defs>
</svg>
