<svg width="24" height="24" viewBox="0 0 24 24" fill="none" xmlns="http://www.w3.org/2000/svg">
<path d="M9 22H15C20 22 22 20 22 15V9C22 4 20 2 15 2H9C4 2 2 4 2 9V15C2 20 4 22 9 22Z" stroke="#272266" stroke-width="1.5" stroke-linecap="round" stroke-linejoin="round"/>
<path d="M8.99972 10C10.1041 10 10.9994 9.10457 10.9994 8C10.9994 6.89543 10.1041 6 8.99972 6C7.89531 6 7 6.89543 7 8C7 9.10457 7.89531 10 8.99972 10Z" stroke="#272266" stroke-width="1.5" stroke-linecap="round" stroke-linejoin="round"/>
<path d="M2.66992 18.9501L7.59992 15.6401C8.38992 15.1101 9.52992 15.1701 10.2399 15.7801L10.5699 16.0701C11.3499 16.7401 12.6099 16.7401 13.3899 16.0701L17.5499 12.5001C18.3299 11.8301 19.5899 11.8301 20.3699 12.5001L21.9999 13.9001" stroke="#272266" stroke-width="1.5" stroke-linecap="round" stroke-linejoin="round"/>
</svg>
