<svg width="28" height="28" viewBox="0 0 28 28" fill="none" xmlns="http://www.w3.org/2000/svg">
<path d="M9.91732 22.1666H9.33398C4.66732 22.1666 2.33398 20.9999 2.33398 15.1666V9.33325C2.33398 4.66659 4.66732 2.33325 9.33398 2.33325H18.6673C23.334 2.33325 25.6673 4.66659 25.6673 9.33325V15.1666C25.6673 19.8333 23.334 22.1666 18.6673 22.1666H18.084C17.7223 22.1666 17.3723 22.3416 17.1507 22.6333L15.4007 24.9666C14.6307 25.9933 13.3707 25.9933 12.6007 24.9666L10.8507 22.6333C10.664 22.3766 10.2323 22.1666 9.91732 22.1666Z" stroke="white" stroke-width="1.5" stroke-miterlimit="10" stroke-linecap="round" stroke-linejoin="round"/>
<path d="M18.6629 12.8333H18.6733" stroke="white" stroke-width="2" stroke-linecap="round" stroke-linejoin="round"/>
<path d="M13.9949 12.8333H14.0054" stroke="white" stroke-width="2" stroke-linecap="round" stroke-linejoin="round"/>
<path d="M9.32693 12.8333H9.3374" stroke="white" stroke-width="2" stroke-linecap="round" stroke-linejoin="round"/>
</svg>
