<svg width="24" height="24" viewBox="0 0 24 24" fill="none" xmlns="http://www.w3.org/2000/svg">
<path d="M5.625 4.82812H5.57812V4.875V19.125V19.1719H5.625H10.5C10.7859 19.1719 11.0602 19.2855 11.2623 19.4877C11.4645 19.6898 11.5781 19.9641 11.5781 20.25C11.5781 20.5359 11.4645 20.8102 11.2623 21.0123C11.0602 21.2145 10.7859 21.3281 10.5 21.3281H4.5C4.21406 21.3281 3.93984 21.2145 3.73765 21.0123C3.53546 20.8102 3.42188 20.5359 3.42188 20.25V3.75C3.42188 3.46406 3.53546 3.18984 3.73765 2.98765C3.93984 2.78546 4.21406 2.67188 4.5 2.67188H10.5C10.7859 2.67188 11.0602 2.78546 11.2623 2.98765C11.4645 3.18984 11.5781 3.46406 11.5781 3.75C11.5781 4.03594 11.4645 4.31016 11.2623 4.51235C11.0602 4.71454 10.7859 4.82812 10.5 4.82812H5.625ZM21.7628 11.2372L21.7628 11.2372C21.8633 11.3375 21.943 11.4565 21.9973 11.5876C22.0516 11.7187 22.0796 11.8592 22.0795 12.0011C22.0794 12.143 22.0513 12.2835 21.9968 12.4145C21.9423 12.5455 21.8625 12.6645 21.7619 12.7646L21.7619 12.7647L18.0119 16.5147C17.8093 16.7172 17.5346 16.831 17.2481 16.831C16.9617 16.831 16.6869 16.7172 16.4844 16.5147C16.2818 16.3121 16.168 16.0374 16.168 15.7509C16.168 15.4645 16.2818 15.1898 16.4844 14.9872C16.4844 14.9872 16.4844 14.9872 16.4844 14.9872L18.3144 13.1582L18.3945 13.0781H18.2812H10.5C10.2141 13.0781 9.93984 12.9645 9.73765 12.7623C9.53546 12.5602 9.42188 12.2859 9.42188 12C9.42188 11.7141 9.53546 11.4398 9.73765 11.2377C9.93984 11.0355 10.2141 10.9219 10.5 10.9219H18.2812H18.3945L18.3144 10.8418L16.4853 9.01467C16.2828 8.81211 16.169 8.53739 16.169 8.25094C16.169 7.96448 16.2828 7.68976 16.4853 7.48721C16.6879 7.28465 16.9626 7.17086 17.2491 7.17086C17.5355 7.17086 17.8102 7.28465 18.0128 7.48721L21.7628 11.2372Z" fill="#272266" stroke="#272266" stroke-width="0.09375"/>
</svg>
