<svg width="24" height="24" viewBox="0 0 24 24" fill="none" xmlns="http://www.w3.org/2000/svg">
<path d="M6 22C7.65685 22 9 20.6569 9 19C9 17.3431 7.65685 16 6 16C4.34315 16 3 17.3431 3 19C3 20.6569 4.34315 22 6 22Z" stroke="#CB6040" stroke-width="1.5" stroke-linecap="round" stroke-linejoin="round"/>
<path d="M21 16.0454V4.52547C21 2.0704 19.2902 1.73047 17.5594 2.15538L11.014 3.76062C9.81818 4.05334 9 4.90317 9 6.1307V8.17974V9.55835V18" stroke="#CB6040" stroke-width="1.5" stroke-linecap="round" stroke-linejoin="round"/>
<path d="M18 20C19.6569 20 21 18.6569 21 17C21 15.3431 19.6569 14 18 14C16.3431 14 15 15.3431 15 17C15 18.6569 16.3431 20 18 20Z" stroke="#CB6040" stroke-width="1.5" stroke-linecap="round" stroke-linejoin="round"/>
<path d="M9 9L21 6" stroke="#CB6040" stroke-width="1.5" stroke-linecap="round" stroke-linejoin="round"/>
</svg>
