<svg width="28" height="28" viewBox="0 0 28 28" fill="none" xmlns="http://www.w3.org/2000/svg">
<path d="M14.0237 3.39502C10.162 3.39502 7.02368 6.53335 7.02368 10.395V13.7667C7.02368 14.4784 6.72035 15.5634 6.35868 16.17L5.01701 18.3984C4.18868 19.775 4.76035 21.3034 6.27701 21.8167C11.3053 23.4967 16.7303 23.4967 21.7587 21.8167C23.1703 21.35 23.7887 19.6817 23.0187 18.3984L21.677 16.17C21.327 15.5634 21.0237 14.4784 21.0237 13.7667V10.395C21.0237 6.54502 17.8737 3.39502 14.0237 3.39502Z" stroke="white" stroke-width="1.5" stroke-miterlimit="10" stroke-linecap="round"/>
<path d="M16.1819 3.73343C15.8202 3.62843 15.4469 3.54676 15.0619 3.50009C13.9419 3.36009 12.8686 3.44176 11.8652 3.73343C12.2036 2.87009 13.0436 2.26343 14.0236 2.26343C15.0036 2.26343 15.8436 2.87009 16.1819 3.73343Z" stroke="white" stroke-width="1.5" stroke-miterlimit="10" stroke-linecap="round" stroke-linejoin="round"/>
<path d="M17.5234 22.2366C17.5234 24.1616 15.9484 25.7366 14.0234 25.7366C13.0668 25.7366 12.1801 25.3399 11.5501 24.7099C10.9201 24.0799 10.5234 23.1932 10.5234 22.2366" stroke="white" stroke-width="1.5" stroke-miterlimit="10"/>
</svg>
