<svg width="24" height="24" viewBox="0 0 24 24" fill="none" xmlns="http://www.w3.org/2000/svg">
<path d="M9 14H4.7991C3.8096 14 3 14.9 3 16V22H9V14Z" stroke="#272266" stroke-width="1.5" stroke-miterlimit="10" stroke-linecap="round" stroke-linejoin="round"/>
<path d="M13.2009 10H10.7991C9.80959 10 9 10.9 9 12V22H15V12C15 10.9 14.1994 10 13.2009 10Z" stroke="#272266" stroke-width="1.5" stroke-miterlimit="10" stroke-linecap="round" stroke-linejoin="round"/>
<path d="M19.2009 16H15V22H21V18.4C21 17.08 20.1904 16 19.2009 16Z" stroke="#272266" stroke-width="1.5" stroke-miterlimit="10" stroke-linecap="round" stroke-linejoin="round"/>
<path d="M12.5206 2.07396L13.0498 3.14362C13.1196 3.29499 13.3094 3.43627 13.4691 3.45645L14.4276 3.61791C15.0366 3.71883 15.1864 4.17291 14.7471 4.60684L13.9983 5.36368C13.8685 5.49486 13.7986 5.73706 13.8385 5.90861L14.0482 6.83702C14.2179 7.57368 13.8285 7.85624 13.1895 7.47277L12.2909 6.93794C12.1312 6.83703 11.8616 6.83703 11.7019 6.93794L10.8033 7.47277C10.1643 7.85624 9.77488 7.57368 9.94461 6.83702L10.1543 5.90861C10.1942 5.73706 10.1243 5.48477 9.99454 5.36368L9.25569 4.61694C8.81638 4.17292 8.95616 3.7289 9.57519 3.62798L10.5337 3.46655C10.6934 3.43628 10.8831 3.295 10.953 3.15373L11.4822 2.08403C11.7718 1.49874 12.231 1.49876 12.5206 2.07396Z" stroke="#272266" stroke-width="1.5" stroke-linecap="round" stroke-linejoin="round"/>
</svg>
