<svg width="29" height="28" viewBox="0 0 29 28" fill="none" xmlns="http://www.w3.org/2000/svg">
<path d="M14.0898 17.5C16.0228 17.5 17.5898 15.933 17.5898 14C17.5898 12.067 16.0228 10.5 14.0898 10.5C12.1568 10.5 10.5898 12.067 10.5898 14C10.5898 15.933 12.1568 17.5 14.0898 17.5Z" stroke="#272266" stroke-width="1.5" stroke-miterlimit="10" stroke-linecap="round" stroke-linejoin="round"/>
<path d="M2.42383 15.0266V12.9733C2.42383 11.76 3.4155 10.7566 4.6405 10.7566C6.75216 10.7566 7.6155 9.2633 6.55383 7.43163C5.94716 6.38163 6.30883 5.01663 7.37049 4.40997L9.38883 3.25497C10.3105 2.70663 11.5005 3.0333 12.0488 3.95497L12.1772 4.17663C13.2272 6.0083 14.9538 6.0083 16.0155 4.17663L16.1438 3.95497C16.6922 3.0333 17.8822 2.70663 18.8038 3.25497L20.8222 4.40997C21.8838 5.01663 22.2455 6.38163 21.6388 7.43163C20.5772 9.2633 21.4405 10.7566 23.5522 10.7566C24.7655 10.7566 25.7688 11.7483 25.7688 12.9733V15.0266C25.7688 16.24 24.7772 17.2433 23.5522 17.2433C21.4405 17.2433 20.5772 18.7366 21.6388 20.5683C22.2455 21.63 21.8838 22.9833 20.8222 23.59L18.8038 24.745C17.8822 25.2933 16.6922 24.9666 16.1438 24.045L16.0155 23.8233C14.9655 21.9916 13.2388 21.9916 12.1772 23.8233L12.0488 24.045C11.5005 24.9666 10.3105 25.2933 9.38883 24.745L7.37049 23.59C6.30883 22.9833 5.94716 21.6183 6.55383 20.5683C7.6155 18.7366 6.75216 17.2433 4.6405 17.2433C3.4155 17.2433 2.42383 16.24 2.42383 15.0266Z" stroke="#272266" stroke-width="1.5" stroke-miterlimit="10" stroke-linecap="round" stroke-linejoin="round"/>
</svg>
