<svg width="29" height="28" viewBox="0 0 29 28" fill="none" xmlns="http://www.w3.org/2000/svg">
<path d="M14.0898 17.5C16.0228 17.5 17.5898 15.933 17.5898 14C17.5898 12.067 16.0228 10.5 14.0898 10.5C12.1568 10.5 10.5898 12.067 10.5898 14C10.5898 15.933 12.1568 17.5 14.0898 17.5Z" stroke="white" stroke-width="1.5" stroke-miterlimit="10" stroke-linecap="round" stroke-linejoin="round"/>
<path d="M2.42383 15.0268V12.9734C2.42383 11.7601 3.4155 10.7568 4.6405 10.7568C6.75216 10.7568 7.6155 9.26342 6.55383 7.43176C5.94716 6.38176 6.30883 5.01676 7.37049 4.41009L9.38883 3.25509C10.3105 2.70676 11.5005 3.03342 12.0488 3.95509L12.1772 4.17676C13.2272 6.00842 14.9538 6.00842 16.0155 4.17676L16.1438 3.95509C16.6922 3.03342 17.8822 2.70676 18.8038 3.25509L20.8222 4.41009C21.8838 5.01676 22.2455 6.38176 21.6388 7.43176C20.5772 9.26342 21.4405 10.7568 23.5522 10.7568C24.7655 10.7568 25.7688 11.7484 25.7688 12.9734V15.0268C25.7688 16.2401 24.7772 17.2434 23.5522 17.2434C21.4405 17.2434 20.5772 18.7368 21.6388 20.5684C22.2455 21.6301 21.8838 22.9834 20.8222 23.5901L18.8038 24.7451C17.8822 25.2934 16.6922 24.9668 16.1438 24.0451L16.0155 23.8234C14.9655 21.9918 13.2388 21.9918 12.1772 23.8234L12.0488 24.0451C11.5005 24.9668 10.3105 25.2934 9.38883 24.7451L7.37049 23.5901C6.30883 22.9834 5.94716 21.6184 6.55383 20.5684C7.6155 18.7368 6.75216 17.2434 4.6405 17.2434C3.4155 17.2434 2.42383 16.2401 2.42383 15.0268Z" stroke="white" stroke-width="1.5" stroke-miterlimit="10" stroke-linecap="round" stroke-linejoin="round"/>
</svg>
