<svg width="24" height="24" viewBox="0 0 24 24" fill="none" xmlns="http://www.w3.org/2000/svg">
<path d="M10.4226 19.2289C10.4491 19.3125 10.4756 19.3931 10.5017 19.4705H2.72949V17.8169C2.72949 15.5761 4.54589 13.7597 6.78669 13.7597H10.4066C10.1449 14.4212 9.88304 15.3461 9.90365 16.3966C9.92401 17.4339 10.1822 18.4716 10.4226 19.2289ZM14.4493 5.79889C14.4493 8.03958 12.6329 9.85609 10.3921 9.85609C8.15128 9.85609 6.33489 8.03969 6.33489 5.79889C6.33489 3.55809 8.15128 1.7417 10.3921 1.7417C12.6329 1.7417 14.4493 3.5582 14.4493 5.79889Z" stroke="#CB6040" stroke-width="1.5"/>
<path d="M17.4323 22.1717L17.9627 22.7021L17.4323 22.1717C17.3166 22.2875 17.129 22.2874 17.0133 22.1718L17.0133 22.1717L12.828 17.9864L12.8279 17.9863C12.7725 17.9309 12.7412 17.8557 12.7412 17.7769V14.0251C12.7412 13.8614 12.8739 13.7288 13.0375 13.7288H16.7894C16.868 13.7288 16.9433 13.76 16.9989 13.8156L16.9989 13.8156L21.1842 18.0008C21.3 18.1166 21.2999 18.3042 21.1842 18.4199L17.4323 22.1717ZM16.7395 17.7395L16.7396 17.7395C17.2282 17.2507 17.2283 16.4584 16.7395 15.9697C16.2508 15.4809 15.4584 15.4809 14.9697 15.9697C14.481 16.4583 14.4808 17.2508 14.9697 17.7396C15.4585 18.2282 16.2508 18.2283 16.7395 17.7395Z" stroke="#CB6040" stroke-width="1.5"/>
</svg>
