<svg width="24" height="24" viewBox="0 0 24 24" fill="none" xmlns="http://www.w3.org/2000/svg">
<path d="M11.5939 20.2205H1.97949V17.8169C1.97949 15.1619 4.13167 13.0097 6.78669 13.0097H11.6043C11.6036 13.0449 10.6168 14.5131 10.6535 16.3819C10.6902 18.2507 11.5939 20.2205 11.5939 20.2205ZM10.3921 10.6061C13.0471 10.6061 15.1993 8.45379 15.1993 5.79889C15.1993 3.144 13.0471 0.991699 10.3921 0.991699C7.73707 0.991699 5.58489 3.14388 5.58489 5.79889C5.58489 8.45391 7.73707 10.6061 10.3921 10.6061Z" fill="#CB6040"/>
<path d="M21.7146 18.9502L17.9627 22.7021C17.554 23.1107 16.8915 23.1107 16.483 22.7021L12.2977 18.5168C12.1014 18.3206 11.9912 18.0544 11.9912 17.7769V14.0251C11.9912 13.4472 12.4597 12.9788 13.0375 12.9788H16.7894C17.0669 12.9788 17.333 13.089 17.5292 13.2852L21.7145 17.4705C22.1231 17.8791 22.1232 18.5416 21.7146 18.9502ZM15.2115 15.4898C15.0157 15.2939 14.6981 15.2939 14.5023 15.4898C14.3064 15.6856 14.3064 16.0032 14.5023 16.199C14.6982 16.3948 15.0157 16.3948 15.2115 16.199C15.4073 16.0031 15.4073 15.6856 15.2115 15.4898Z" fill="#CB6040"/>
</svg>
