<svg width="25" height="24" viewBox="0 0 25 24" fill="none" xmlns="http://www.w3.org/2000/svg">
<path d="M15.5 22H9.5C4.5 22 2.5 20 2.5 15V9C2.5 4 4.5 2 9.5 2H15.5C20.5 2 22.5 4 22.5 9V15C22.5 20 20.5 22 15.5 22Z" stroke="white" stroke-width="1.5" stroke-linecap="round" stroke-linejoin="round"/>
<path d="M10.0509 17.72H7.60086C6.93086 17.72 6.38086 17.17 6.38086 16.5V7.50998C6.38086 6.83998 6.93086 6.28998 7.60086 6.28998H10.0509C10.7209 6.28998 11.2709 6.83998 11.2709 7.50998V16.49C11.2709 17.17 10.7209 17.72 10.0509 17.72Z" stroke="white" stroke-width="1.5" stroke-miterlimit="10"/>
<path d="M17.6407 13.63H14.7007C14.1607 13.63 13.7207 13.19 13.7207 12.65V7.26998C13.7207 6.72998 14.1607 6.28998 14.7007 6.28998H17.6407C18.1807 6.28998 18.6207 6.72998 18.6207 7.26998V12.66C18.6307 13.19 18.1807 13.63 17.6407 13.63Z" stroke="white" stroke-width="1.5" stroke-miterlimit="10"/>
</svg>
