<svg width="20" height="20" viewBox="0 0 20 20" fill="none" xmlns="http://www.w3.org/2000/svg">
<path d="M19.063 4.375V9.375C19.063 9.62364 18.9642 9.8621 18.7884 10.0379C18.6125 10.2137 18.3741 10.3125 18.1255 10.3125C17.8768 10.3125 17.6384 10.2137 17.4625 10.0379C17.2867 9.8621 17.188 9.62364 17.188 9.375V6.64062L11.2887 12.5406C11.2016 12.628 11.0981 12.6974 10.9842 12.7447C10.8702 12.792 10.7481 12.8164 10.6247 12.8164C10.5013 12.8164 10.3791 12.792 10.2652 12.7447C10.1512 12.6974 10.0477 12.628 9.96061 12.5406L7.50045 10.0781L2.53874 15.0383C2.36262 15.2144 2.12374 15.3133 1.87467 15.3133C1.6256 15.3133 1.38673 15.2144 1.21061 15.0383C1.03449 14.8622 0.935547 14.6233 0.935547 14.3742C0.935547 14.1251 1.03449 13.8863 1.21061 13.7102L6.83561 8.08516C6.92271 7.99776 7.0262 7.92841 7.14015 7.88109C7.25411 7.83377 7.37628 7.80942 7.49967 7.80942C7.62306 7.80942 7.74523 7.83377 7.85919 7.88109C7.97314 7.92841 8.07664 7.99776 8.16373 8.08516L10.6255 10.5469L15.8598 5.3125H13.1255C12.8768 5.3125 12.6384 5.21373 12.4625 5.03791C12.2867 4.8621 12.188 4.62364 12.188 4.375C12.188 4.12636 12.2867 3.8879 12.4625 3.71209C12.6384 3.53627 12.8768 3.4375 13.1255 3.4375H18.1255C18.3741 3.4375 18.6125 3.53627 18.7884 3.71209C18.9642 3.8879 19.063 4.12636 19.063 4.375Z" fill="#22C55E"/>
</svg>
