<svg width="20" height="20" viewBox="0 0 20 20" fill="none" xmlns="http://www.w3.org/2000/svg">
<path d="M7.21423 4.79669C7.06346 4.94747 6.9711 5.15699 6.9714 5.3871L6.9714 5.48838C6.9714 5.94917 7.34443 6.32221 7.80464 6.32162L12.3576 6.32162L4.65581 14.0234C4.33054 14.3486 4.33054 14.8766 4.65581 15.2019C4.98107 15.5272 5.50905 15.5272 5.83432 15.2019L13.5361 7.50013V12.0531C13.5361 12.5138 13.9091 12.8869 14.3693 12.8863H14.4706C14.9314 12.8863 15.3044 12.5133 15.3038 12.0531V5.3871C15.3038 4.9263 14.9308 4.55326 14.4706 4.55385L7.80464 4.55385C7.57424 4.55385 7.36501 4.64592 7.21423 4.79669Z" fill="#34C759"/>
</svg>
