<svg width="65" height="64" viewBox="0 0 65 64" fill="none" xmlns="http://www.w3.org/2000/svg">
<g filter="url(#filter0_d_6774_2913)">
<rect x="10.5" y="8" width="44" height="44" rx="12" fill="white" shape-rendering="crispEdges"/>
<path fill-rule="evenodd" clip-rule="evenodd" d="M27.3504 25.9999C27.3504 24.2602 28.7607 22.8499 30.5004 22.8499C32.2401 22.8499 33.6504 24.2602 33.6504 25.9999C33.6504 27.7396 32.2401 29.1499 30.5004 29.1499C28.7607 29.1499 27.3504 27.7396 27.3504 25.9999ZM30.5004 21.1499C27.8218 21.1499 25.6504 23.3213 25.6504 25.9999C25.6504 28.6785 27.8218 30.8499 30.5004 30.8499C33.179 30.8499 35.3504 28.6785 35.3504 25.9999C35.3504 23.3213 33.179 21.1499 30.5004 21.1499ZM25.3504 35.9166C25.3504 35.5136 25.679 34.9978 26.7188 34.5387C27.7083 34.1017 29.0846 33.8499 30.5004 33.8499C31.8961 33.8499 33.2713 34.143 34.2683 34.6046C34.7672 34.8356 35.1332 35.0911 35.3634 35.3377C35.585 35.5752 35.648 35.7655 35.6503 35.9084C35.6422 35.9299 35.6054 35.998 35.4631 36.1087C35.2446 36.2785 34.8801 36.4615 34.3653 36.6269C33.345 36.9548 31.9367 37.1499 30.5004 37.1499C28.8019 37.1499 27.4038 36.952 26.4617 36.6315C25.988 36.4703 25.6814 36.2954 25.5081 36.1424C25.3493 36.0023 25.3502 35.9285 25.3504 35.9173L25.3504 35.9166ZM35.6523 35.9009C35.6525 35.901 35.6523 35.9029 35.6509 35.9067C35.6514 35.9028 35.6521 35.9009 35.6523 35.9009ZM30.5004 32.1499C28.9162 32.1499 27.2925 32.4269 26.032 32.9836C24.8217 33.518 23.6504 34.4606 23.6504 35.9166C23.6504 36.5455 23.9679 37.0506 24.3833 37.4171C24.7881 37.7743 25.3253 38.0405 25.9141 38.2409C27.097 38.6434 28.6989 38.8499 30.5004 38.8499C32.0641 38.8499 33.6558 38.6406 34.8854 38.2454C35.4957 38.0493 36.0686 37.7912 36.5064 37.4509C36.9408 37.1133 37.3504 36.6033 37.3504 35.9166C37.3504 35.227 37.0365 34.6388 36.6062 34.1777C36.1801 33.7212 35.6085 33.3517 34.9825 33.0619C33.7295 32.4818 32.1047 32.1499 30.5004 32.1499ZM36.6543 29.9184C36.6993 29.4511 37.1146 29.1088 37.5819 29.1538C38.7961 29.2708 39.9226 29.5864 40.7738 30.0787C41.5981 30.5554 42.3504 31.3199 42.3504 32.3732C42.3504 32.9191 42.1414 33.4169 41.7353 33.8125C41.3523 34.1854 40.8295 34.4348 40.2322 34.6042C39.7806 34.7322 39.3107 34.4699 39.1826 34.0182C39.0546 33.5666 39.3169 33.0967 39.7686 32.9686C40.2161 32.8417 40.4433 32.6977 40.5492 32.5946C40.6318 32.5142 40.6504 32.4535 40.6504 32.3732C40.6504 32.2165 40.5332 31.9033 39.9228 31.5503C39.3392 31.2129 38.4657 30.9469 37.4189 30.846C36.9516 30.801 36.6093 30.3856 36.6543 29.9184ZM38.5004 21.1499C38.0309 21.1499 37.6504 21.5305 37.6504 21.9999C37.6504 22.4693 38.0309 22.8499 38.5004 22.8499C39.4117 22.8499 40.1504 23.5886 40.1504 24.4999C40.1504 25.4112 39.4117 26.1499 38.5004 26.1499C38.0309 26.1499 37.6504 26.5305 37.6504 26.9999C37.6504 27.4693 38.0309 27.8499 38.5004 27.8499C40.3505 27.8499 41.8504 26.3501 41.8504 24.4999C41.8504 22.6497 40.3505 21.1499 38.5004 21.1499Z" fill="#CB6040"/>
</g>
<defs>
<filter id="filter0_d_6774_2913" x="0.5" y="0" width="64" height="64" filterUnits="userSpaceOnUse" color-interpolation-filters="sRGB">
<feFlood flood-opacity="0" result="BackgroundImageFix"/>
<feColorMatrix in="SourceAlpha" type="matrix" values="0 0 0 0 0 0 0 0 0 0 0 0 0 0 0 0 0 0 127 0" result="hardAlpha"/>
<feOffset dy="2"/>
<feGaussianBlur stdDeviation="5"/>
<feComposite in2="hardAlpha" operator="out"/>
<feColorMatrix type="matrix" values="0 0 0 0 0.486275 0 0 0 0 0.552941 0 0 0 0 0.709804 0 0 0 0.12 0"/>
<feBlend mode="normal" in2="BackgroundImageFix" result="effect1_dropShadow_6774_2913"/>
<feBlend mode="normal" in="SourceGraphic" in2="effect1_dropShadow_6774_2913" result="shape"/>
</filter>
</defs>
</svg>
