<svg width="64" height="64" viewBox="0 0 64 64" fill="none" xmlns="http://www.w3.org/2000/svg">
<g filter="url(#filter0_d_6687_2202)">
<rect x="10" y="8" width="44" height="44" rx="12" fill="white" shape-rendering="crispEdges"/>
<path fill-rule="evenodd" clip-rule="evenodd" d="M26.8504 26C26.8504 24.2603 28.2607 22.85 30.0004 22.85C31.7401 22.85 33.1504 24.2603 33.1504 26C33.1504 27.7397 31.7401 29.15 30.0004 29.15C28.2607 29.15 26.8504 27.7397 26.8504 26ZM30.0004 21.15C27.3218 21.15 25.1504 23.3214 25.1504 26C25.1504 28.6786 27.3218 30.85 30.0004 30.85C32.679 30.85 34.8504 28.6786 34.8504 26C34.8504 23.3214 32.679 21.15 30.0004 21.15ZM24.8504 35.9167C24.8504 35.5137 25.179 34.9979 26.2188 34.5388C27.2083 34.1018 28.5846 33.85 30.0004 33.85C31.3961 33.85 32.7713 34.1431 33.7683 34.6047C34.2672 34.8357 34.6332 35.0912 34.8634 35.3378C35.085 35.5753 35.148 35.7656 35.1503 35.9085C35.1422 35.9301 35.1054 35.9982 34.9631 36.1088C34.7446 36.2786 34.3801 36.4616 33.8653 36.6271C32.845 36.955 31.4367 37.15 30.0004 37.15C28.3019 37.15 26.9038 36.9521 25.9617 36.6316C25.488 36.4704 25.1814 36.2955 25.0081 36.1425C24.8493 36.0024 24.8502 35.9287 24.8504 35.9174L24.8504 35.9167ZM35.1523 35.9011C35.1525 35.9011 35.1523 35.903 35.1509 35.9068C35.1514 35.903 35.1521 35.9011 35.1523 35.9011ZM30.0004 32.15C28.4162 32.15 26.7925 32.4271 25.532 32.9837C24.3217 33.5181 23.1504 34.4607 23.1504 35.9167C23.1504 36.5456 23.4679 37.0507 23.8833 37.4173C24.2881 37.7744 24.8253 38.0406 25.4141 38.241C26.597 38.6435 28.1989 38.85 30.0004 38.85C31.5641 38.85 33.1558 38.6407 34.3854 38.2455C34.9957 38.0494 35.5686 37.7913 36.0064 37.451C36.4408 37.1134 36.8504 36.6034 36.8504 35.9167C36.8504 35.2271 36.5365 34.639 36.1062 34.1779C35.6801 33.7213 35.1085 33.3518 34.4825 33.062C33.2295 32.4819 31.6047 32.15 30.0004 32.15ZM36.1543 29.9185C36.1993 29.4512 36.6146 29.1089 37.0819 29.1539C38.2961 29.2709 39.4226 29.5866 40.2738 30.0788C41.0981 30.5555 41.8504 31.32 41.8504 32.3733C41.8504 32.9192 41.6414 33.4171 41.2353 33.8126C40.8523 34.1855 40.3295 34.435 39.7322 34.6043C39.2806 34.7323 38.8107 34.47 38.6826 34.0184C38.5546 33.5667 38.8169 33.0968 39.2686 32.9688C39.7161 32.8419 39.9433 32.6978 40.0492 32.5947C40.1318 32.5143 40.1504 32.4536 40.1504 32.3733C40.1504 32.2166 40.0332 31.9034 39.4228 31.5505C38.8392 31.213 37.9657 30.947 36.9189 30.8461C36.4516 30.8011 36.1093 30.3858 36.1543 29.9185ZM38.0004 21.15C37.5309 21.15 37.1504 21.5306 37.1504 22C37.1504 22.4695 37.5309 22.85 38.0004 22.85C38.9117 22.85 39.6504 23.5888 39.6504 24.5C39.6504 25.4113 38.9117 26.15 38.0004 26.15C37.5309 26.15 37.1504 26.5306 37.1504 27C37.1504 27.4695 37.5309 27.85 38.0004 27.85C39.8505 27.85 41.3504 26.3502 41.3504 24.5C41.3504 22.6499 39.8505 21.15 38.0004 21.15Z" fill="#02C1F3"/>
</g>
<defs>
<filter id="filter0_d_6687_2202" x="0" y="0" width="64" height="64" filterUnits="userSpaceOnUse" color-interpolation-filters="sRGB">
<feFlood flood-opacity="0" result="BackgroundImageFix"/>
<feColorMatrix in="SourceAlpha" type="matrix" values="0 0 0 0 0 0 0 0 0 0 0 0 0 0 0 0 0 0 127 0" result="hardAlpha"/>
<feOffset dy="2"/>
<feGaussianBlur stdDeviation="5"/>
<feComposite in2="hardAlpha" operator="out"/>
<feColorMatrix type="matrix" values="0 0 0 0 0.486275 0 0 0 0 0.552941 0 0 0 0 0.709804 0 0 0 0.12 0"/>
<feBlend mode="normal" in2="BackgroundImageFix" result="effect1_dropShadow_6687_2202"/>
<feBlend mode="normal" in="SourceGraphic" in2="effect1_dropShadow_6687_2202" result="shape"/>
</filter>
</defs>
</svg>
