<svg width="16" height="16" viewBox="0 0 16 16" fill="none" xmlns="http://www.w3.org/2000/svg">
<path d="M14.1163 6.42625C13.8806 6.18 13.6369 5.92625 13.545 5.70312C13.46 5.49875 13.455 5.16 13.45 4.83187C13.4406 4.22187 13.4306 3.53062 12.95 3.05C12.4694 2.56937 11.7781 2.55937 11.1681 2.55C10.84 2.545 10.5013 2.54 10.2969 2.455C10.0744 2.36312 9.82 2.11937 9.57375 1.88375C9.1425 1.46937 8.6525 1 8 1C7.3475 1 6.85813 1.46937 6.42625 1.88375C6.18 2.11937 5.92625 2.36312 5.70312 2.455C5.5 2.54 5.16 2.545 4.83187 2.55C4.22187 2.55937 3.53062 2.56937 3.05 3.05C2.56937 3.53062 2.5625 4.22187 2.55 4.83187C2.545 5.16 2.54 5.49875 2.455 5.70312C2.36312 5.92563 2.11937 6.18 1.88375 6.42625C1.46937 6.8575 1 7.3475 1 8C1 8.6525 1.46937 9.14188 1.88375 9.57375C2.11937 9.82 2.36312 10.0738 2.455 10.2969C2.54 10.5013 2.545 10.84 2.55 11.1681C2.55937 11.7781 2.56937 12.4694 3.05 12.95C3.53062 13.4306 4.22187 13.4406 4.83187 13.45C5.16 13.455 5.49875 13.46 5.70312 13.545C5.92563 13.6369 6.18 13.8806 6.42625 14.1163C6.8575 14.5306 7.3475 15 8 15C8.6525 15 9.14188 14.5306 9.57375 14.1163C9.82 13.8806 10.0738 13.6369 10.2969 13.545C10.5013 13.46 10.84 13.455 11.1681 13.45C11.7781 13.4406 12.4694 13.4306 12.95 12.95C13.4306 12.4694 13.4406 11.7781 13.45 11.1681C13.455 10.84 13.46 10.5013 13.545 10.2969C13.6369 10.0744 13.8806 9.82 14.1163 9.57375C14.5306 9.1425 15 8.6525 15 8C15 7.3475 14.5306 6.85813 14.1163 6.42625Z" fill="#22C55E"/>
<path d="M11.0306 5.96944C11.1005 6.03912 11.156 6.12191 11.1938 6.21308C11.2317 6.30424 11.2512 6.40198 11.2512 6.50069C11.2512 6.5994 11.2317 6.69714 11.1938 6.7883C11.156 6.87947 11.1005 6.96226 11.0306 7.03194L7.5306 10.5319C7.46092 10.6019 7.37812 10.6573 7.28696 10.6952C7.1958 10.733 7.09806 10.7525 6.99935 10.7525C6.90064 10.7525 6.8029 10.733 6.71173 10.6952C6.62057 10.6573 6.53778 10.6019 6.4681 10.5319L4.9681 9.03194C4.89833 8.96217 4.84299 8.87935 4.80524 8.7882C4.76748 8.69705 4.74805 8.59935 4.74805 8.50069C4.74805 8.40203 4.76748 8.30433 4.80524 8.21318C4.84299 8.12203 4.89833 8.0392 4.9681 7.96944C5.03786 7.89967 5.12069 7.84433 5.21184 7.80658C5.30299 7.76882 5.40069 7.74939 5.49935 7.74939C5.59801 7.74939 5.69571 7.76882 5.78686 7.80658C5.87801 7.84433 5.96083 7.89967 6.0306 7.96944L6.99997 8.93756L9.96935 5.96756C10.0391 5.89795 10.1219 5.84278 10.2131 5.8052C10.3042 5.76762 10.4018 5.74836 10.5004 5.74854C10.5989 5.74871 10.6965 5.76831 10.7875 5.80621C10.8784 5.84412 10.9611 5.89958 11.0306 5.96944Z" fill="white"/>
</svg>
