<svg width="24" height="24" viewBox="0 0 24 24" fill="none" xmlns="http://www.w3.org/2000/svg">
<path d="M12.3692 20.4201H6.0496C2.88978 20.4201 1.83984 18.3201 1.83984 16.2101V7.79008C1.83984 4.63008 2.88978 3.58008 6.0496 3.58008H12.3692C15.5291 3.58008 16.579 4.63008 16.579 7.79008V16.2101C16.579 19.3701 15.5191 20.4201 12.3692 20.4201Z" stroke="#272266" stroke-width="1.5" stroke-linecap="round" stroke-linejoin="round"/>
<path d="M19.7796 17.0999L17 15.1499V8.83989L19.7796 6.88989C21.1394 5.93989 22.2593 6.51989 22.2593 8.18989V15.8099C22.2593 17.4799 21.1394 18.0599 19.7796 17.0999Z" stroke="#272266" stroke-width="1.5" stroke-linecap="round" stroke-linejoin="round"/>
<path d="M11.3392 11C12.1673 11 12.8386 10.3284 12.8386 9.5C12.8386 8.67157 12.1673 8 11.3392 8C10.5111 8 9.83984 8.67157 9.83984 9.5C9.83984 10.3284 10.5111 11 11.3392 11Z" stroke="#272266" stroke-width="1.5" stroke-linecap="round" stroke-linejoin="round"/>
</svg>
