<svg width="126" height="34" viewBox="0 0 126 34" fill="none" xmlns="http://www.w3.org/2000/svg">
<path d="M32.4489 11.6628C35.3747 11.6628 37.7465 9.27354 37.7465 6.32626C37.7465 3.37899 35.3747 0.989746 32.4489 0.989746C29.5232 0.989746 27.1514 3.37899 27.1514 6.32626C27.1514 9.27354 29.5232 11.6628 32.4489 11.6628Z" fill="#F2E5BF"/>
<path d="M18.5427 22.3371C18.469 22.3371 18.3965 22.3383 18.3228 22.3421C17.6619 22.3711 17.0409 22.0275 16.6961 21.4598L16.6673 21.4133C16.3187 20.8406 16.2688 20.1181 16.5861 19.5266C17.0459 18.667 17.2796 17.6664 17.2033 16.6054C17.0359 14.2731 15.3217 12.3047 13.0577 11.7912C12.6229 11.693 12.1969 11.654 11.7833 11.6653C11.1374 11.6829 10.5352 11.3368 10.1978 10.7818L10.0754 10.5816C9.73053 10.0153 9.73178 9.31547 10.0304 8.7214C10.4814 7.82275 10.6888 6.7781 10.5576 5.6743C10.2678 3.2414 8.30618 1.28552 5.88729 1.02247C2.69751 0.676349 0 3.18476 0 6.32752C0 9.27519 2.37141 11.664 5.29756 11.664C5.37128 11.664 5.44375 11.6628 5.51621 11.659C6.17716 11.6301 6.79813 11.9737 7.14422 12.5413L7.17295 12.5879C7.52154 13.1605 7.57152 13.883 7.25417 14.4733C6.79438 15.3329 6.56073 16.3335 6.63695 17.3945C6.80437 19.7267 8.51858 21.6952 10.7825 22.2087C11.2173 22.3069 11.6446 22.3459 12.0582 22.3346C12.7042 22.3169 13.3064 22.6631 13.6437 23.2181L13.7662 23.4195C14.111 23.9859 14.1098 24.6856 13.8112 25.2797C13.3601 26.1784 13.1527 27.223 13.2839 28.3268C13.5725 30.7597 15.5354 32.7156 17.953 32.9786C21.1428 33.326 23.8403 30.8176 23.8403 27.6736C23.8403 24.7259 21.4676 22.3371 18.5427 22.3371Z" fill="#CB6040"/>
<path d="M26.3793 11.7319C26.0483 11.6816 25.7284 11.6602 25.4173 11.664C24.7526 11.6741 24.1241 11.3594 23.7768 10.788L23.6506 10.5803C23.3058 10.0139 23.307 9.31415 23.6056 8.72009C24.0567 7.82144 24.2641 6.77679 24.1329 5.67299C23.8393 3.20359 21.8227 1.2326 19.3626 1.01109C16.2365 0.729158 13.6102 3.18471 13.5765 6.26705C13.5527 8.45075 14.8971 10.3664 16.885 11.2373C17.6246 11.5608 18.3355 11.6803 19.0102 11.6615C19.7149 11.6413 20.3796 11.9812 20.7469 12.5865C21.1005 13.168 21.1305 13.8942 20.8132 14.4971C20.1372 15.7796 19.966 17.3768 20.562 19.0118C21.2005 20.765 22.7785 21.9909 24.6127 22.2691C25.3211 22.376 25.982 22.3546 26.6117 22.22C27.8099 21.9594 28.8595 21.2924 29.6079 20.3685C30.7273 18.9841 31.1684 17.0156 30.4287 14.988C29.7903 13.236 28.2123 12.0101 26.3793 11.7319Z" fill="#FD8B51"/>
<path d="M45.7497 9.32743L49.5929 20.7833L52.4703 12.265C52.7727 11.3916 53.2949 10.683 54.0371 10.1405C54.7793 9.59803 55.6101 9.32617 56.531 9.32617L51.4458 23.8002H50.0464C49.363 23.8002 48.742 23.6014 48.1835 23.2049C47.6251 22.8084 47.234 22.2848 47.0103 21.6367L43.6994 12.2449C43.4495 11.53 43.5419 10.8655 43.9755 10.25C44.409 9.63453 45.0013 9.32743 45.7497 9.32743Z" fill="white"/>
<path d="M60.7491 9.89241C61.8398 9.26436 63.058 8.94971 64.4049 8.94971C65.7518 8.94971 66.97 9.26436 68.0607 9.89241C69.1515 10.5217 70.0123 11.3977 70.6433 12.5229C71.2742 13.6481 71.5891 14.9218 71.5891 16.3453C71.5891 17.7688 71.273 19.0463 70.6433 20.1778C70.0123 21.3093 69.1515 22.1903 68.0607 22.8184C66.97 23.4477 65.7518 23.7611 64.4049 23.7611C63.058 23.7611 61.8386 23.4464 60.7491 22.8184C59.6583 22.1903 58.7975 21.3093 58.1665 20.1778C57.5356 19.0463 57.2207 17.7688 57.2207 16.3453C57.2207 14.9231 57.5356 13.6481 58.1665 12.5229C58.7987 11.399 59.6583 10.5217 60.7491 9.89241ZM66.6139 12.1856C65.9767 11.8017 65.237 11.6104 64.3962 11.6104C63.5553 11.6104 62.8156 11.803 62.1784 12.1856C61.5412 12.5695 61.0452 13.1195 60.6904 13.8331C60.3355 14.548 60.1581 15.385 60.1581 16.3453C60.1581 17.3056 60.3355 18.1426 60.6904 18.8575C61.0452 19.5724 61.5412 20.1212 62.1784 20.505C62.8156 20.8889 63.5553 21.0802 64.3962 21.0802C65.237 21.0802 65.9767 20.8889 66.6139 20.505C67.2511 20.1212 67.7509 19.5711 68.1119 18.8575C68.473 18.1426 68.6542 17.3056 68.6542 16.3453C68.6542 15.3863 68.473 14.548 68.1119 13.8331C67.7496 13.1195 67.2511 12.5707 66.6139 12.1856Z" fill="white"/>
<path d="M76.8132 9.30713V23.7812C76.0111 23.7812 75.3314 23.5005 74.7729 22.9379C74.2144 22.3753 73.9346 21.6906 73.9346 20.8826V12.2057C73.9346 11.3989 74.2132 10.713 74.7729 10.1504C75.3327 9.58906 76.0124 9.30713 76.8132 9.30713Z" fill="white"/>
<path d="M88.8961 11.5312L82.2729 21.4592H88.9748V21.4793C88.9748 22.1149 88.7487 22.6611 88.2951 23.1168C87.8416 23.5736 87.2993 23.8014 86.6696 23.8014H79.1006V21.9752C79.1006 21.7109 79.1731 21.4655 79.318 21.2402L85.6451 11.6495H81.5057C80.8623 11.6495 80.3163 11.4217 79.8702 10.9648C79.4229 10.508 79.2005 9.96173 79.2005 9.32739H87.5779C87.9328 9.32739 88.2414 9.45703 88.5038 9.71505C88.7661 9.97306 88.8986 10.2877 88.8986 10.6577V11.5312H88.8961Z" fill="white"/>
</svg>
