<svg width="165" height="165" viewBox="0 0 165 165" fill="none" xmlns="http://www.w3.org/2000/svg">
<path fill-rule="evenodd" clip-rule="evenodd" d="M120.596 53.6456C122.888 55.9283 122.896 59.6368 120.613 61.9288L71.2607 111.482C68.978 113.774 65.2696 113.781 62.9776 111.499L44.979 93.575C42.6869 91.2924 42.6792 87.5838 44.9618 85.2917C47.2444 82.9996 50.9529 82.9919 53.245 85.2745L67.0936 99.0657L112.313 53.6624C114.596 51.3704 118.304 51.3629 120.596 53.6456Z" fill="#CB6040"/>
<path fill-rule="evenodd" clip-rule="evenodd" d="M82.1586 17.2143C51.1114 17.2143 25.065 38.8937 18.379 67.9361L18.379 67.9362C17.2906 72.6635 16.7143 77.5909 16.7143 82.6586C16.7143 118.775 46.0421 148.103 82.1586 148.103C118.275 148.103 147.603 118.775 147.603 82.6586C147.603 46.5421 118.275 17.2143 82.1586 17.2143ZM6.96331 65.308C14.8455 31.0697 45.53 5.5 82.1586 5.5C124.745 5.5 159.317 40.0725 159.317 82.6586C159.317 125.245 124.745 159.817 82.1586 159.817C39.5725 159.817 5 125.245 5 82.6586C5 76.6999 5.67796 70.8909 6.96331 65.308Z" fill="#257180"/>
</svg>
