<svg width="1920" height="1080" viewBox="0 0 1920 1080" fill="none" xmlns="http://www.w3.org/2000/svg">
<g clip-path="url(#clip0_7_1935)">
<rect width="1920" height="1080" fill="white"/>
<rect x="-401.65" y="-4.45068" width="1920" height="1188" fill="url(#paint0_linear_7_1935)"/>
<path opacity="0.6" d="M584.206 -457.438C608.199 -490.086 644.19 -507.27 692.177 -510.706C779.583 -517.579 829.284 -476.339 841.281 -386.987C894.409 -27.8565 952.68 276.287 1014.38 525.444L1389.71 -191.098C1423.98 -256.394 1466.83 -290.76 1518.24 -294.197C1593.65 -299.352 1639.93 -251.239 1658.78 -149.858C1701.62 78.6794 1756.47 272.85 1821.59 437.81C1866.15 1.35498 1941.56 -313.099 2047.82 -507.269C2073.53 -555.382 2111.23 -579.439 2160.93 -582.876C2200.35 -586.312 2236.34 -574.284 2268.9 -548.509C2301.47 -522.734 2318.6 -490.086 2322.03 -450.565C2323.75 -419.635 2318.6 -393.86 2304.89 -368.085C2238.05 -244.365 2183.21 -36.4479 2138.65 252.231C2095.81 532.318 2080.38 750.545 2090.66 906.912C2094.09 949.87 2087.24 987.674 2070.1 1020.32C2049.53 1058.12 2018.68 1078.74 1979.27 1082.18C1934.71 1085.62 1888.43 1065 1843.87 1018.6C1684.49 855.363 1557.66 611.361 1465.12 286.597C1353.72 506.543 1271.45 671.502 1218.32 781.475C1117.21 975.646 1031.52 1075.31 959.535 1080.46C913.262 1083.9 873.844 1044.38 839.567 961.899C752.161 736.798 657.901 302.062 556.785 -342.31C551.643 -386.986 560.212 -426.508 584.206 -457.438Z" fill="white"/>
<circle cx="1290.8" cy="454.994" r="4.12556" fill="#7854F7"/>
<circle cx="1351.31" cy="454.994" r="4.12556" fill="#7854F7"/>
<circle cx="1411.82" cy="454.994" r="4.12556" fill="#7854F7"/>
<circle cx="1472.33" cy="454.994" r="4.12556" fill="#7854F7"/>
<circle cx="1532.84" cy="454.994" r="4.12556" fill="#7854F7"/>
<circle cx="1290.8" cy="515.502" r="4.12556" fill="#7854F7"/>
<circle cx="1351.31" cy="515.502" r="4.12556" fill="#7854F7"/>
<circle cx="1411.82" cy="515.502" r="4.12556" fill="#7854F7"/>
<circle cx="1472.33" cy="515.502" r="4.12556" fill="#7854F7"/>
<circle cx="1532.84" cy="515.502" r="4.12556" fill="#7854F7"/>
<circle cx="1290.8" cy="576.01" r="4.12556" fill="#7854F7"/>
<circle cx="1351.31" cy="576.01" r="4.12556" fill="#7854F7"/>
<circle cx="1411.82" cy="576.01" r="4.12556" fill="#7854F7"/>
<circle cx="1472.33" cy="576.01" r="4.12556" fill="#7854F7"/>
<circle cx="1532.84" cy="576.01" r="4.12556" fill="#7854F7"/>
<circle cx="1290.8" cy="636.518" r="4.12556" fill="#7854F7"/>
<circle cx="1351.31" cy="636.518" r="4.12556" fill="#7854F7"/>
<circle cx="1411.82" cy="636.518" r="4.12556" fill="#7854F7"/>
<circle cx="1472.33" cy="636.518" r="4.12556" fill="#7854F7"/>
<circle cx="1532.84" cy="636.518" r="4.12556" fill="#7854F7"/>
<circle cx="1290.8" cy="697.027" r="4.12556" fill="#7854F7"/>
<circle cx="1351.31" cy="697.027" r="4.12556" fill="#7854F7"/>
<circle cx="1411.82" cy="697.027" r="4.12556" fill="#7854F7"/>
<circle cx="1472.33" cy="697.027" r="4.12556" fill="#7854F7"/>
<circle cx="1532.84" cy="697.027" r="4.12556" fill="#7854F7"/>
<circle cx="1290.8" cy="757.535" r="4.12556" fill="#7854F7"/>
<circle cx="1351.31" cy="757.535" r="4.12556" fill="#7854F7"/>
<circle cx="1411.82" cy="757.535" r="4.12556" fill="#7854F7"/>
<circle cx="1472.33" cy="757.535" r="4.12556" fill="#7854F7"/>
<circle cx="1532.84" cy="757.535" r="4.12556" fill="#7854F7"/>
<circle cx="1290.8" cy="818.043" r="4.12556" fill="#7854F7"/>
<circle cx="1351.31" cy="818.043" r="4.12556" fill="#7854F7"/>
<circle cx="1411.82" cy="818.043" r="4.12556" fill="#7854F7"/>
<circle cx="1472.33" cy="818.043" r="4.12556" fill="#7854F7"/>
<circle cx="1532.84" cy="818.043" r="4.12556" fill="#7854F7"/>
<circle cx="1290.8" cy="878.551" r="4.12556" fill="#7854F7"/>
<circle cx="1351.31" cy="878.551" r="4.12556" fill="#7854F7"/>
<circle cx="1411.82" cy="878.551" r="4.12556" fill="#7854F7"/>
<circle cx="1472.33" cy="878.551" r="4.12556" fill="#7854F7"/>
<circle cx="1532.84" cy="878.551" r="4.12556" fill="#7854F7"/>
<circle cx="1290.8" cy="939.059" r="4.12556" fill="#7854F7"/>
<circle cx="1351.31" cy="939.059" r="4.12556" fill="#7854F7"/>
<circle cx="1411.82" cy="939.059" r="4.12556" fill="#7854F7"/>
<circle cx="1472.33" cy="939.059" r="4.12556" fill="#7854F7"/>
<circle cx="1532.84" cy="939.059" r="4.12556" fill="#7854F7"/>
<circle cx="1290.8" cy="999.568" r="4.12556" fill="#7854F7"/>
<circle cx="1351.31" cy="999.568" r="4.12556" fill="#7854F7"/>
<circle cx="1411.82" cy="999.568" r="4.12556" fill="#7854F7"/>
<circle cx="1472.33" cy="999.568" r="4.12556" fill="#7854F7"/>
<circle cx="1532.84" cy="999.568" r="4.12556" fill="#7854F7"/>
<rect x="-3.42749" y="592.25" width="1920" height="487" fill="#02C1F3"/>
<g filter="url(#filter0_f_7_1935)">
<circle cx="455.573" cy="673.75" r="113" fill="#02C1F3"/>
</g>
<g filter="url(#filter1_f_7_1935)">
<circle cx="1465.57" cy="603.75" r="113" fill="#4461F2"/>
</g>
<g opacity="0.45" filter="url(#filter2_f_7_1935)">
<circle cx="100.373" cy="407.75" r="113" fill="#DDA82A"/>
</g>
<line opacity="0.5" x1="443.023" y1="846.07" x2="443.023" y2="861.661" stroke="white"/>
<line opacity="0.5" x1="603.023" y1="846.07" x2="603.023" y2="861.661" stroke="white"/>
</g>
<defs>
<filter id="filter0_f_7_1935" x="25.5725" y="243.75" width="860" height="860" filterUnits="userSpaceOnUse" color-interpolation-filters="sRGB">
<feFlood flood-opacity="0" result="BackgroundImageFix"/>
<feBlend mode="normal" in="SourceGraphic" in2="BackgroundImageFix" result="shape"/>
<feGaussianBlur stdDeviation="158.5" result="effect1_foregroundBlur_7_1935"/>
</filter>
<filter id="filter1_f_7_1935" x="1035.57" y="173.75" width="860" height="860" filterUnits="userSpaceOnUse" color-interpolation-filters="sRGB">
<feFlood flood-opacity="0" result="BackgroundImageFix"/>
<feBlend mode="normal" in="SourceGraphic" in2="BackgroundImageFix" result="shape"/>
<feGaussianBlur stdDeviation="158.5" result="effect1_foregroundBlur_7_1935"/>
</filter>
<filter id="filter2_f_7_1935" x="-329.627" y="-22.25" width="860" height="860" filterUnits="userSpaceOnUse" color-interpolation-filters="sRGB">
<feFlood flood-opacity="0" result="BackgroundImageFix"/>
<feBlend mode="normal" in="SourceGraphic" in2="BackgroundImageFix" result="shape"/>
<feGaussianBlur stdDeviation="158.5" result="effect1_foregroundBlur_7_1935"/>
</filter>
<linearGradient id="paint0_linear_7_1935" x1="558.35" y1="-4.45068" x2="558.35" y2="1183.55" gradientUnits="userSpaceOnUse">
<stop stop-color="#E5EFFF"/>
<stop offset="0.836972" stop-color="#E5EFFF" stop-opacity="0.262661"/>
<stop offset="1" stop-color="#E5EFFF" stop-opacity="0"/>
</linearGradient>
<clipPath id="clip0_7_1935">
<rect width="1920" height="1080" fill="white"/>
</clipPath>
</defs>
</svg>
