<svg width="107" height="124" viewBox="0 0 107 124" fill="none" xmlns="http://www.w3.org/2000/svg">
<path d="M83.8841 30.4342C90.4324 30.4342 95.7408 25.0867 95.7408 18.4903C95.7408 11.8939 90.4324 6.54639 83.8841 6.54639C77.3358 6.54639 72.0273 11.8939 72.0273 18.4903C72.0273 25.0867 77.3358 30.4342 83.8841 30.4342Z" fill="#F2E5BF"/>
<path d="M52.7601 54.3251C52.5951 54.3251 52.4329 54.328 52.2679 54.3364C50.7887 54.4012 49.3988 53.6322 48.627 52.3617L48.5627 52.2575C47.7825 50.9758 47.6707 49.3588 48.381 48.0349C49.41 46.1109 49.933 43.8714 49.7624 41.4967C49.3877 36.2769 45.551 31.8712 40.4839 30.7218C39.5108 30.5021 38.5572 30.4148 37.6316 30.4401C36.1859 30.4796 34.838 29.7049 34.083 28.4626L33.8089 28.0147C33.0371 26.7471 33.0399 25.1809 33.7083 23.8513C34.7178 21.84 35.182 19.5019 34.8883 17.0314C34.2396 11.5862 29.8492 7.20868 24.4354 6.61994C17.2962 5.84527 11.2588 11.4595 11.2588 18.4934C11.2588 25.0907 16.5664 30.4373 23.1155 30.4373C23.2805 30.4373 23.4427 30.4345 23.6049 30.4261C25.0842 30.3613 26.474 31.1303 27.2486 32.4007L27.3129 32.505C28.0931 33.7867 28.205 35.4036 27.4947 36.7248C26.4656 38.6488 25.9427 40.8882 26.1133 43.2629C26.488 48.4828 30.3246 52.8885 35.3917 54.0378C36.3648 54.2575 37.3212 54.3449 38.2468 54.3195C39.6926 54.2801 41.0404 55.0547 41.7954 56.297L42.0695 56.7477C42.8413 58.0154 42.8385 59.5816 42.1702 60.9112C41.1607 62.9225 40.6965 65.2606 40.9901 67.731C41.636 73.1762 46.0292 77.5538 51.4402 78.1425C58.5794 78.92 64.6168 73.3058 64.6168 66.269C64.6168 59.6717 59.3065 54.3251 52.7601 54.3251Z" fill="#CB6040"/>
<path d="M70.2989 30.5892C69.5579 30.4765 68.842 30.4286 68.1457 30.4371C66.658 30.4596 65.2514 29.7554 64.474 28.4765L64.1916 28.0117C63.4198 26.744 63.4226 25.1778 64.0909 23.8482C65.1004 21.8369 65.5646 19.4988 65.271 17.0283C64.6139 11.5015 60.1005 7.09011 54.5944 6.59433C47.5978 5.96333 41.7197 11.4592 41.6442 18.3579C41.5911 23.2454 44.6 27.5328 49.0491 29.4821C50.7046 30.2061 52.2957 30.4737 53.8058 30.4314C55.3829 30.3864 56.8706 31.1469 57.6928 32.5019C58.4841 33.8033 58.5513 35.4287 57.841 36.778C56.3281 39.6485 55.945 43.2232 57.2789 46.8825C58.7079 50.8065 62.2397 53.5502 66.3448 54.1728C67.9304 54.4122 69.4097 54.3643 70.8191 54.0629C73.5008 53.4798 75.8498 51.9868 77.5248 49.9192C80.0304 46.8205 81.0175 42.4148 79.362 37.8767C77.9331 33.9554 74.4012 31.2117 70.2989 30.5892Z" fill="#FD8B51"/>
<path d="M7.57586 85.0599L16.1776 110.7L22.6177 91.6347C23.2944 89.6798 24.4633 88.0938 26.1244 86.8797C27.7854 85.6656 29.645 85.0571 31.706 85.0571L20.3246 117.452H17.1927C15.663 117.452 14.2732 117.007 13.0232 116.12C11.7733 115.232 10.898 114.061 10.3974 112.61L2.98698 91.5897C2.4277 89.9896 2.63463 88.5023 3.60498 87.1248C4.57533 85.7473 5.90082 85.0599 7.57586 85.0599Z" fill="#161616"/>
<path d="M41.147 86.3248C43.5883 84.9191 46.3148 84.2148 49.3293 84.2148C52.3438 84.2148 55.0703 84.9191 57.5115 86.3248C59.9528 87.7332 61.8795 89.6938 63.2917 92.2122C64.7039 94.7306 65.4086 97.5813 65.4086 100.767C65.4086 103.953 64.7011 106.812 63.2917 109.345C61.8795 111.877 59.9528 113.849 57.5115 115.255C55.0703 116.663 52.3438 117.365 49.3293 117.365C46.3148 117.365 43.5855 116.661 41.147 115.255C38.7058 113.849 36.7791 111.877 35.3669 109.345C33.9547 106.812 33.25 103.953 33.25 100.767C33.25 97.5841 33.9547 94.7306 35.3669 92.2122C36.7818 89.6967 38.7058 87.7332 41.147 86.3248ZM54.2733 91.4573C52.8471 90.5981 51.1917 90.1699 49.3097 90.1699C47.4277 90.1699 45.7723 90.6009 44.3461 91.4573C42.9199 92.3164 41.8098 93.5474 41.0156 95.1446C40.2214 96.7447 39.8243 98.618 39.8243 100.767C39.8243 102.917 40.2214 104.79 41.0156 106.39C41.8098 107.99 42.9199 109.218 44.3461 110.077C45.7723 110.937 47.4277 111.365 49.3097 111.365C51.1917 111.365 52.8471 110.937 54.2733 110.077C55.6995 109.218 56.818 107.987 57.6262 106.39C58.4343 104.79 58.8398 102.917 58.8398 100.767C58.8398 98.6208 58.4343 96.7447 57.6262 95.1446C56.8152 93.5474 55.6995 92.3192 54.2733 91.4573Z" fill="#161616"/>
<path d="M77.1001 85.0149V117.41C75.3048 117.41 73.7836 116.782 72.5336 115.523C71.2836 114.263 70.6572 112.731 70.6572 110.922V91.5023C70.6572 89.6967 71.2808 88.1614 72.5336 86.9023C73.7864 85.6459 75.3076 85.0149 77.1001 85.0149Z" fill="#161616"/>
<path d="M104.143 89.9926L89.3198 112.213H104.32V112.258C104.32 113.68 103.814 114.903 102.798 115.923C101.783 116.945 100.57 117.455 99.1603 117.455H82.2197V113.368C82.2197 112.776 82.3819 112.227 82.7063 111.723L96.8672 90.2574H87.6028C86.1626 90.2574 84.9406 89.7475 83.9423 88.7249C82.9412 87.7024 82.4434 86.4798 82.4434 85.0601H101.193C101.987 85.0601 102.678 85.3502 103.265 85.9277C103.853 86.5052 104.149 87.2094 104.149 88.0376V89.9926H104.143Z" fill="#161616"/>
</svg>
